<?xml version="1.0" encoding="UTF-8" standalone="no"?>
<!-- Created with Inkscape (http://www.inkscape.org/) -->

<svg
   version="1.1"
   id="svg2"
   width="96.115852"
   height="120.69053"
   viewBox="0 0 96.115854 120.69053"
   xmlns="http://www.w3.org/2000/svg"
   xmlns:svg="http://www.w3.org/2000/svg">
  <defs
     id="defs6" />
  <g
     id="g8"
     transform="translate(-18.550806,-7.6146084)">
    <path
       style="fill:#010101;stroke:none;stroke-width:1.33333"
       d="m 114.66666,128 v -5.33334 H 45.333332 C 37.756666,122.66613 24.609066,122.9868 24.609066,112 c 0,-10.9868 13.1476,-10.66614 20.724266,-10.66667 H 114.66666 V 7.9999998 H 53.333332 c -8.2976,0 -19.27,-1.8839866 -26.641999,2.6790132 -9.203733,5.696853 -8.024667,15.89592 -8.024667,25.320986 v 62.666665 c 0,9.123866 -1.5564,19.638396 6.739733,25.796266 C 32.656666,129.84466 43.508266,128 51.999999,128 H 114.66666 M 74.666665,26.666666 v 16 H 87.999998 V 53.333332 H 74.666665 V 82.666665 H 63.999998 V 53.333332 H 50.666665 V 42.666666 h 13.333333 v -16 z"
       id="path293" />
  </g>
</svg>
