<?xml version="1.0" encoding="UTF-8" standalone="no"?>
<!-- Created with Inkscape (http://www.inkscape.org/) -->

<svg
   version="1.1"
   id="svg2"
   width="106.96539"
   height="106.83998"
   viewBox="0 0 106.96539 106.83998"
   xmlns="http://www.w3.org/2000/svg"
   xmlns:svg="http://www.w3.org/2000/svg">
  <defs
     id="defs6" />
  <g
     id="g8"
     transform="translate(-9.1541294,-7.1649487)">
    <path
       style="fill:#020202;stroke:none;stroke-width:1.33333"
       d="M 9.2233551,92.567516 H 19.890021 V 17.900849 H 94.55669 V 7.2341829 l -57.333069,0.004 c -7.420266,0.018 -17.579333,-1.0826537 -23.3292,4.6670661 -5.7497329,5.749867 -4.6490529,15.908934 -4.6670529,23.3292 l -0.004,57.333067 M 38.105088,31.106449 c -5.949867,3.266267 -7.0848,9.945334 -7.402,16.15 -0.7004,13.7028 -0.224533,27.591334 -0.133467,41.31 0.0428,6.435867 -0.4952,14.477741 3.859334,19.780261 4.1912,5.1036 11.393466,5.3456 17.4684,5.49387 12.426933,0.30333 24.895195,0.1036 37.325465,0.0529 6.182,-0.0252 13.5064,0.54933 19.1188,-2.5316 5.94987,-3.26627 7.0848,-9.94532 7.402,-16.149994 0.7004,-13.7028 0.22454,-27.591333 0.13347,-41.31 -0.0428,-6.435867 0.4952,-14.477733 -3.85933,-19.780267 -4.1912,-5.1036 -11.39347,-5.3456 -17.46841,-5.493866 -12.42693,-0.303334 -24.895195,-0.1036 -37.325462,-0.05293 -6.182,0.0252 -13.5064,-0.549333 -19.1188,2.5316 m 67.118272,8.127734 V 103.23419 H 41.223355 V 39.234183 Z"
       id="path1212" />
  </g>
</svg>
