<?xml version="1.0" encoding="UTF-8" standalone="no"?>
<!-- Created with Inkscape (http://www.inkscape.org/) -->

<svg
   version="1.1"
   id="svg2"
   width="133.33333"
   height="133.33333"
   viewBox="0 0 133.33333 133.33333"
   xmlns="http://www.w3.org/2000/svg"
   xmlns:svg="http://www.w3.org/2000/svg">
  <defs
     id="defs6" />
  <g
     id="g8">
    <path
       style="fill:#000000;stroke-width:1.33333"
       d="m 11.555555,121.77777 c -0.488889,-0.48888 -0.888889,-5.88888 -0.888889,-12 V 98.666664 h 12 12 v 11.999996 12 H 23.555555 c -6.111111,0 -11.511111,-0.4 -12,-0.88889 z M 39.999999,110.66666 V 98.666664 h 12 11.999999 v 11.999996 12 h -11.999999 -12 z m 29.333333,0 V 98.666664 h 11.999999 12 v 11.999996 12 h -12 -11.999999 z m 29.333332,0.0519 V 98.666664 h 12.051906 12.05191 L 122.38524,110.33333 122,122 l -11.66667,0.38524 -11.666666,0.38524 z M 10.666666,81.333331 V 69.333332 h 12 12 v 11.999999 12 h -12 -12 z m 29.333333,0 V 69.333332 h 12 11.999999 v 11.999999 12 h -11.999999 -12 z m 29.333333,0 V 69.333332 h 11.999999 12 v 11.999999 12 h -12 -11.999999 z m 29.333332,0 V 69.333332 h 11.999996 12 v 11.999999 12 h -12 -11.999996 z M 10.666666,51.999999 v -12 h 12 12 v 12 11.999999 h -12 -12 z m 29.333333,0 v -12 h 12 11.999999 v 12 11.999999 h -11.999999 -12 z m 29.333333,0 v -12 h 11.999999 12 v 12 11.999999 h -12 -11.999999 z m 29.333332,0 v -12 h 11.999996 12 v 12 11.999999 h -12 -11.999996 z m -87.718575,-29 0.385244,-11.666666 11.666666,-0.385244 11.666667,-0.385244 v 12.05191 12.051911 H 22.614755 10.562845 Z m 29.05191,-0.333333 v -12 h 12 11.999999 v 12 12 h -11.999999 -12 z m 29.333333,0 v -12 h 11.999999 12 v 12 12 h -12 -11.999999 z m 29.333332,-0.05191 V 10.562845 L 110.33333,10.948089 122,11.333333 l 0.38524,11.666666 0.38524,11.666667 H 110.71857 98.666664 Z"
       id="path170" />
  </g>
</svg>
