<?xml version="1.0" encoding="UTF-8" standalone="no"?>


<svg
   version="1.1"
   id="svg348"
   width="106.44316"
   height="102.08302"
   viewBox="0 0 106.44316 102.08302"
   xmlns="http://www.w3.org/2000/svg"
   xmlns:svg="http://www.w3.org/2000/svg">
  <defs
     id="defs352" />
  <g
     id="g354"
     transform="translate(-10.582809,-11.007537)">
    <path
       style="fill:#000000;stroke-width:1.33333"
       d="m 17.624737,109.56005 -7.041928,-3.64747 3.772671,-3.61444 3.772671,-3.614452 5.610614,5.716802 c 4.379363,4.46224 5.257734,6.06968 4.002591,7.32482 -2.068111,2.06811 -1.85582,2.11355 -10.116619,-2.16526 z m 31.817166,-4.76257 c -2.280786,-2.74817 -7.410176,-3.66367 -11.600587,-2.07048 -3.329411,1.26584 -4.163505,0.91159 -8.821708,-3.746608 -4.658203,-4.658203 -5.012445,-5.492297 -3.746607,-8.821708 1.593192,-4.190411 0.677692,-9.319801 -2.070485,-11.600587 -2.984575,-2.476977 -2.193788,-5.720366 2.505137,-10.274744 l 4.37432,-4.239758 16.986019,17.023806 16.986017,17.023807 -4.423814,4.287732 c -4.791455,4.64406 -7.757027,5.34804 -10.188292,2.41854 z M 54.321531,73.642925 37.395579,56.666667 66.544992,33.837101 95.694405,11.007537 106.36019,21.673317 117.02597,32.339099 94.999115,60.502883 c -12.114768,15.490081 -22.414928,28.6031 -22.889243,29.140042 -0.474315,0.536943 -8.479068,-6.663057 -17.788341,-16 z"
       id="path475" />
  </g>
</svg>
