<?xml version="1.0" encoding="UTF-8" standalone="no"?>
<!-- Created with Inkscape (http://www.inkscape.org/) -->

<svg
   version="1.1"
   id="svg252"
   width="64"
   height="64"
   viewBox="0 0 64 64"
   xmlns="http://www.w3.org/2000/svg"
   xmlns:svg="http://www.w3.org/2000/svg">
  <defs
     id="defs256" />
  <g
     id="g258">
    <path
       style="fill:#000000;stroke-width:1.33333"
       d="m 4.5180539,50.093516 c -1.3275582,-3.459561 0.533177,-6.318913 3.8093184,-5.853699 4.2727997,0.606742 4.2727997,6.913624 0,7.520366 -1.803039,0.256033 -3.3274476,-0.410932 -3.8093184,-1.666667 z M 18.666667,48 c 0,-2.548148 0.888889,-2.666667 20,-2.666667 19.11111,0 20,0.11852 20,2.666667 0,2.548148 -0.88889,2.666667 -20,2.666667 -19.111111,0 -20,-0.11852 -20,-2.666667 z M 4.5180539,34.093516 c -1.3275582,-3.459561 0.533177,-6.318913 3.8093184,-5.853699 4.2727997,0.606742 4.2727997,6.913624 0,7.520366 -1.803039,0.256033 -3.3274476,-0.410932 -3.8093184,-1.666667 z M 18.666667,32 c 0,-2.548148 0.888889,-2.666667 20,-2.666667 19.11111,0 20,0.11852 20,2.666667 0,2.548148 -0.88889,2.666667 -20,2.666667 -19.111111,0 -20,-0.11852 -20,-2.666667 z M 4.5180539,18.093516 c -1.3275582,-3.459561 0.533177,-6.318913 3.8093184,-5.853698 4.2727997,0.606741 4.2727997,6.913623 0,7.520365 -1.803039,0.256033 -3.3274476,-0.410932 -3.8093184,-1.666667 z M 18.666667,16 c 0,-2.548148 0.888889,-2.666667 20,-2.666667 19.11111,0 20,0.11852 20,2.666667 0,2.548148 -0.88889,2.666667 -20,2.666667 -19.111111,0 -20,-0.11852 -20,-2.666667 z"
       id="path264" />
  </g>
</svg>
