<?xml version="1.0" encoding="UTF-8" standalone="no"?>

<svg
   version="1.1"
   id="svg798"
   width="96"
   height="96"
   viewBox="0 0 96 96"
   xmlns="http://www.w3.org/2000/svg"
   xmlns:svg="http://www.w3.org/2000/svg">
  <defs
     id="defs802" />
  <g
     id="g804"
     transform="translate(-16,-16)">
    <path
       style="fill:#000000;stroke-width:1.33333"
       d="M 19.272727,108.72727 16,105.45455 V 64 22.545455 L 19.272727,19.272727 22.545455,16 H 64 105.45455 l 3.27272,3.272727 C 111.99725,22.542709 112,22.569285 112,50.959401 V 79.373349 L 95.647413,95.686675 79.294825,112 H 50.92014 c -28.348432,0 -28.377713,-0.003 -31.647413,-3.27273 z M 74.666667,88 V 74.666667 H 88 101.33333 v -24 -24 H 64 26.666667 V 64 101.33333 h 24 24 z M 37.333333,64 V 58.666667 H 50.666667 64 V 64 69.333333 H 50.666667 37.333333 Z m 0,-21.333333 V 37.333333 H 64 90.666667 V 42.666667 48 H 64 37.333333 Z"
       id="path925" />
  </g>
</svg>
