<?xml version="1.0" encoding="UTF-8" standalone="no"?>

<svg
   version="1.1"
   id="svg2"
   width="96.130432"
   height="96"
   viewBox="0 0 96.130432 96"
   xmlns="http://www.w3.org/2000/svg"
   xmlns:svg="http://www.w3.org/2000/svg">
  <defs
     id="defs6" />
  <g
     id="g8"
     transform="translate(-16,-16)">
    <path
       style="fill:#000000;stroke-width:1.33333"
       d="M 19.272727,108.72727 16,105.45455 V 64 22.545455 L 19.272727,19.272727 22.545455,16 h 33.641558 33.641559 l 11.150928,11.150928 11.15093,11.150928 -0.39855,34.302125 c -0.3976,34.220589 -0.40603,34.308179 -3.54626,36.849069 C 105.2389,111.83737 102.4042,112 63.791681,112 H 22.545455 Z m 55.9361,-12.654045 c 3.502058,-3.50206 4.124506,-5.122865 4.124506,-10.739892 0,-5.693716 -0.607301,-7.222686 -4.358974,-10.974358 C 71.222687,70.607301 69.693716,70 64,70 c -5.693716,0 -7.222687,0.607301 -10.974359,4.358975 -3.737012,3.73701 -4.358974,5.291226 -4.358974,10.892581 0,6.853933 3.398442,12.271284 9.333333,14.877974 4.985283,2.1896 12.806448,0.34607 17.208827,-4.056305 z M 78.4,46.4 c 2.077387,-2.077387 2.077387,-16.055947 0,-18.133333 -2.250848,-2.250848 -47.882485,-2.250848 -50.133333,0 -2.077387,2.077386 -2.077387,16.055946 0,18.133333 2.250848,2.250848 47.882485,2.250848 50.133333,0 z"
       id="path293" />
  </g>
</svg>
